<?xml version="1.0" encoding="UTF-8" standalone="no"?>
<!-- Created with Inkscape (http://www.inkscape.org/) -->

<svg
   xmlns:dc="http://purl.org/dc/elements/1.1/"
   xmlns:cc="http://creativecommons.org/ns#"
   xmlns:rdf="http://www.w3.org/1999/02/22-rdf-syntax-ns#"
   xmlns:svg="http://www.w3.org/2000/svg"
   xmlns="http://www.w3.org/2000/svg"
   xmlns:sodipodi="http://sodipodi.sourceforge.net/DTD/sodipodi-0.dtd"
   xmlns:inkscape="http://www.inkscape.org/namespaces/inkscape"
   width="210"
   height="150"
   id="svg3821"
   version="1.1"
   inkscape:version="0.48.2 r9819"
   sodipodi:docname="drawing.svg"
   inkscape:export-filename="/Users/ryan/github/private-jam/img/promo/icon_16.png"
   inkscape:export-xdpi="90"
   inkscape:export-ydpi="90">
  <defs
     id="defs3823" />
  <sodipodi:namedview
     id="base"
     pagecolor="#ffffff"
     bordercolor="#666666"
     borderopacity="1.0"
     inkscape:pageopacity="0.0"
     inkscape:pageshadow="2"
     inkscape:zoom="1.979899"
     inkscape:cx="68.821428"
     inkscape:cy="30.964286"
     inkscape:document-units="px"
     inkscape:current-layer="g4879"
     showgrid="false"
     inkscape:window-width="1440"
     inkscape:window-height="852"
     inkscape:window-x="0"
     inkscape:window-y="0"
     inkscape:window-maximized="0"
     showguides="false"
     inkscape:guide-bbox="true">
    <sodipodi:guide
       orientation="0,1"
       position="588.91893,833.37584"
       id="guide3145" />
    <sodipodi:guide
       orientation="0,1"
       position="571.74634,721.24891"
       id="guide3147" />
    <sodipodi:guide
       orientation="0,1"
       position="381.33258,818.22356"
       id="guide3149" />
  </sodipodi:namedview>
  <metadata
     id="metadata3826">
    <rdf:RDF>
      <cc:Work
         rdf:about="">
        <dc:format>image/svg+xml</dc:format>
        <dc:type
           rdf:resource="http://purl.org/dc/dcmitype/StillImage" />
        <dc:title></dc:title>
      </cc:Work>
    </rdf:RDF>
  </metadata>
  <g
     inkscape:label="Layer 1"
     inkscape:groupmode="layer"
     id="layer1"
     transform="translate(0,-902.3622)">
    <g
       id="g4879"
       transform="translate(238.67813,369.66817)">
      <g
         id="g5286"
         transform="matrix(0.69331747,0.03779832,-0.03468879,0.75546767,-224.92379,473.30673)"
         inkscape:export-filename="/home/caolan/projects/jam_website/jam_large.png"
         inkscape:export-xdpi="62.608921"
         inkscape:export-ydpi="62.608921">
        <path
           inkscape:connector-curvature="0"
           style="fill-rule:evenodd"
           d="m 148.785,130.269 c 1.421,-0.545 0.72,1.034 1.881,0.752 0.496,2.142 -1.395,2.119 -1.881,2.26 -0.972,-0.518 -0.086,-2.308 0,-3.012 z"
           id="path4095" />
        <path
           inkscape:connector-curvature="0"
           style="fill-rule:evenodd"
           d="m 126.95,134.409 c 0.046,0.676 -0.463,0.793 -0.377,1.506 -1.002,-0.004 -2.151,0.143 -2.635,-0.377 0,-0.502 0,-1.003 0,-1.506 1.121,-0.631 2.436,-0.994 3.012,0.377 z"
           id="path4099" />
        <path
           inkscape:connector-curvature="0"
           style="fill-rule:evenodd"
           d="m 157.066,135.538 c -1.161,-0.061 -2.13,0.89 -3.012,0 -0.738,-3.26 3.524,-2.605 3.012,0 z"
           id="path4101" />
        <path
           inkscape:connector-curvature="0"
           style="fill-rule:evenodd"
           d="m 143.136,133.656 c 1.415,-0.743 1.274,1.93 1.884,0.753 0.772,1.231 -1.32,2.845 -2.258,2.635 -0.585,-0.547 -0.791,-1.469 -0.754,-2.635 0.754,0.128 1.177,-0.078 1.128,-0.753 z"
           id="path4103" />
        <path
           inkscape:connector-curvature="0"
           style="fill-rule:evenodd"
           d="m 133.35,134.409 c 0.971,0.032 0.396,1.612 1.881,1.129 0.049,0.928 0.058,1.814 -0.377,2.26 -1.02,-0.204 -0.938,-0.302 -2.258,-0.754 -0.374,-1.501 1.125,-1.133 0.754,-2.635 z"
           id="path4105" />
        <path
           inkscape:connector-curvature="0"
           style="fill-rule:evenodd"
           d="m 150.289,137.421 c 0.334,0.292 0.852,0.404 1.508,0.377 0.178,1.558 0,2.762 -1.508,2.635 -1.051,-0.791 -0.549,-1.929 0,-3.012 z"
           id="path4109" />
        <path
           inkscape:connector-curvature="0"
           style="fill-rule:evenodd"
           d="m 127.323,137.798 c 1.054,0.579 2.353,0.911 2.638,2.258 -1.718,1.902 -4.835,-0.132 -2.638,-2.258 z"
           id="path4111" />
        <path
           inkscape:connector-curvature="0"
           style="fill-rule:evenodd"
           d="m 172.124,138.927 c 1.063,-0.311 0.978,0.53 1.885,0.377 0.423,2.066 -1.088,2.425 -1.508,2.635 -0.849,-0.281 -0.147,-2.111 -0.377,-3.012 z"
           id="path4113" />
        <path
           inkscape:connector-curvature="0"
           style="fill-rule:evenodd"
           d="m 117.912,139.304 c 0.784,0.222 1.284,0.725 1.507,1.506 0.282,1.158 -1.033,0.723 -0.754,1.882 -0.781,-0.22 -1.216,-0.792 -1.881,-1.13 0.359,-0.77 0.769,-1.489 1.128,-2.258 z"
           id="path4115" />
        <path
           inkscape:connector-curvature="0"
           style="fill-rule:evenodd"
           d="m 158.573,140.056 c 0.674,-0.047 0.794,0.461 1.505,0.377 0.049,1.304 -0.325,2.186 -1.882,1.883 -0.471,-1.147 -0.288,-1.465 0.377,-2.26 z"
           id="path4117" />
        <path
           inkscape:connector-curvature="0"
           style="fill-rule:evenodd"
           d="m 143.136,141.562 c 1.262,-0.004 1.556,0.955 2.261,1.506 -0.104,1.579 -2.197,1.929 -3.012,0.753 0.215,-0.787 0.931,-1.075 0.751,-2.259 z"
           id="path4121" />
        <path
           inkscape:connector-curvature="0"
           style="fill-rule:evenodd"
           d="m 134.477,142.692 c 0.928,-0.05 1.814,-0.058 2.258,0.375 0,0.502 0,1.005 0,1.506 -0.444,0.434 -1.33,0.426 -2.258,0.377 0,-0.754 0,-1.506 0,-2.258 z"
           id="path4123" />
        <path
           inkscape:connector-curvature="0"
           style="fill-rule:evenodd"
           d="m 148.031,143.444 c 1.339,-0.084 2.255,0.254 2.635,1.129 -0.013,1.37 -1.106,1.654 -2.635,1.506 -0.083,-1.377 -0.517,-1.445 0,-2.635 z"
           id="path4125" />
        <path
           inkscape:connector-curvature="0"
           style="fill-rule:evenodd"
           d="m 165.725,143.444 c 0.873,-0.12 1.445,0.06 1.884,0.376 0.27,1.151 -0.386,1.371 -0.377,2.258 -0.644,0.08 -0.974,-0.642 -1.13,0 -0.794,-0.307 -1.034,-1.983 -0.377,-2.634 z"
           id="path4127" />
        <path
           inkscape:connector-curvature="0"
           style="fill-rule:evenodd"
           d="m 175.513,143.821 c 1.186,-0.182 0.852,1.155 2.258,0.752 -0.315,0.438 -0.496,1.009 -0.373,1.883 -1.425,0.394 -1.829,0.979 -3.015,0 -0.36,-1.615 1.056,-1.454 1.13,-2.635 z"
           id="path4129" />
        <path
           inkscape:connector-curvature="0"
           style="fill-rule:evenodd"
           d="m 155.185,144.95 c 1.29,0.09 0.748,2.011 1.882,2.259 -0.064,1.189 -1.489,1.021 -2.635,1.129 -0.298,-1.677 0.256,-2.503 0.753,-3.388 z"
           id="path4131" />
        <path
           inkscape:connector-curvature="0"
           style="fill-rule:evenodd"
           d="m 111.515,145.704 c 0.27,1.15 -0.386,1.371 -0.377,2.258 -0.886,-1.158 -0.224,-0.15 -1.507,0 0.009,-0.887 -0.649,-1.108 -0.377,-2.258 1.185,-0.423 0.851,-0.036 2.261,0 z"
           id="path4133" />
        <path
           inkscape:connector-curvature="0"
           style="fill-rule:evenodd"
           d="m 123.184,146.833 c 0.754,0 1.504,0 2.258,0 -0.31,1.065 0.53,0.976 0.376,1.883 -0.444,0.434 -1.33,0.426 -2.258,0.377 -0.434,-0.447 -0.425,-1.332 -0.376,-2.26 z"
           id="path4135" />
        <path
           inkscape:connector-curvature="0"
           style="fill-rule:evenodd"
           d="m 104.361,147.962 c 0.999,0.006 2.215,-0.208 2.258,0.753 0.064,0.944 -0.843,0.913 -1.13,1.506 -1.591,-0.234 -1.383,-0.836 -1.128,-2.259 z"
           id="path4137" />
        <path
           inkscape:connector-curvature="0"
           style="fill-rule:evenodd"
           d="m 115.653,147.962 c 0.874,-0.12 1.446,0.061 1.884,0.376 0.303,1.684 -0.671,2.091 -1.884,2.258 -0.18,-0.856 -0.747,-1.922 0,-2.634 z"
           id="path4139" />
        <path
           inkscape:connector-curvature="0"
           style="fill-rule:evenodd"
           d="m 160.455,147.962 c 1.574,-0.322 2.049,0.461 2.635,1.13 0.063,0.942 -0.579,1.178 -1.131,1.504 -1.541,-0.386 -1.977,-1.041 -1.504,-2.634 z"
           id="path4141" />
        <path
           inkscape:connector-curvature="0"
           style="fill-rule:evenodd"
           d="m 183.794,147.962 c -0.272,1.152 0.649,1.107 0.377,2.259 -1.152,-0.274 -1.106,0.649 -2.258,0.375 -0.946,-1.222 -0.059,-3.121 1.881,-2.634 z"
           id="path4143" />
        <path
           inkscape:connector-curvature="0"
           style="fill-rule:evenodd"
           d="m 190.571,147.962 c 1.207,0.05 1.657,0.853 1.507,2.259 -0.931,0.699 -2.166,1.104 -3.012,0 -0.103,-1.359 1.49,-1.022 1.505,-2.259 z"
           id="path4145" />
        <path
           inkscape:connector-curvature="0"
           style="fill-rule:evenodd"
           d="m 142.385,149.092 c 1.063,-0.312 0.975,0.53 1.881,0.375 0.377,1.759 -0.655,2.105 -2.258,1.883 -0.049,-0.928 -0.059,-1.813 0.377,-2.258 z"
           id="path4147" />
        <path
           inkscape:connector-curvature="0"
           style="fill-rule:evenodd"
           d="m 137.489,151.727 c -0.564,0.893 -1.584,0.375 -1.882,0.752 -0.766,-0.363 -0.814,-1.444 -0.753,-2.635 1.648,-0.524 2.855,-0.324 2.635,1.883 z"
           id="path4149" />
        <path
           inkscape:connector-curvature="0"
           style="fill-rule:evenodd"
           d="m 149.535,149.467 c 0.668,0.339 1.101,0.909 1.885,1.129 0.153,0.908 -0.689,0.819 -0.377,1.882 -1.158,-0.263 -0.724,-0.263 -1.881,0 -0.512,-1.109 -0.473,-2.329 0.373,-3.011 z"
           id="path4151" />
        <path
           inkscape:connector-curvature="0"
           style="fill-rule:evenodd"
           d="m 169.866,150.221 c 1.223,-0.219 1.753,0.256 2.635,0.375 0,0.628 0,1.256 0,1.882 -1.651,0.195 -1.237,0.118 -2.635,0.377 -0.391,-1.065 -0.391,-1.567 0,-2.634 z"
           id="path4153" />
        <path
           inkscape:connector-curvature="0"
           style="fill-rule:evenodd"
           d="m 98.714,151.35 c 0.876,0 1.755,0 2.635,0 0.423,1.979 -1.697,2.831 -3.012,1.883 -0.312,-1.065 0.53,-0.976 0.377,-1.883 z"
           id="path4155" />
        <path
           inkscape:connector-curvature="0"
           style="fill-rule:evenodd"
           d="m 177.021,151.727 c 1.158,-0.282 0.456,1.297 1.881,0.752 0,0.628 0,1.255 0,1.883 -0.741,0.748 -2.15,0.239 -3.012,0 0.254,-1.001 0.719,-1.789 1.131,-2.635 z"
           id="path4157" />
        <path
           inkscape:connector-curvature="0"
           style="fill-rule:evenodd"
           d="m 108.126,152.856 c 0.3,0.199 0.61,0.394 1.127,0.377 0.061,1.188 0.015,2.271 -0.753,2.635 -1.995,0.055 -0.901,-2.367 -0.374,-3.012 z"
           id="path4159" />
        <path
           inkscape:connector-curvature="0"
           style="fill-rule:evenodd"
           d="m 117.161,153.608 c 1.063,-0.309 0.974,0.532 1.881,0.377 0.273,1.15 -0.386,1.373 -0.377,2.26 -0.643,0.078 -0.974,-0.642 -1.127,0 -0.576,-0.526 -1.069,-1.949 -0.377,-2.637 z"
           id="path4161" />
        <path
           inkscape:connector-curvature="0"
           style="fill-rule:evenodd"
           d="m 163.466,153.608 c 1.958,-0.325 1.934,1.33 2.259,2.637 -0.754,-0.129 -1.177,0.077 -1.128,0.752 -1.685,0.231 -1.881,-2.364 -1.131,-3.389 z"
           id="path4163" />
        <path
           inkscape:connector-curvature="0"
           style="fill-rule:evenodd"
           d="m 193.96,153.608 c 1.313,-0.058 1.596,0.915 2.635,1.131 -0.358,0.769 -0.77,1.489 -1.128,2.258 -1.786,-0.268 -1.851,-1.901 -1.507,-3.389 z"
           id="path4165" />
        <path
           inkscape:connector-curvature="0"
           style="fill-rule:evenodd"
           d="m 154.055,153.985 c 1.577,0.51 1.164,0.671 3.012,0.754 -0.334,0.795 -1.146,1.112 -1.131,2.258 -1.143,10e-4 -2.255,-0.585 -1.881,-3.012 z"
           id="path4167" />
        <path
           inkscape:connector-curvature="0"
           style="fill-rule:evenodd"
           d="m 186.055,154.739 c 0,0.752 0,1.506 0,2.258 -1.421,0.199 -1.768,0.53 -2.635,-0.375 0.264,-1.243 0.803,-2.211 2.635,-1.883 z"
           id="path4169" />
        <path
           inkscape:connector-curvature="0"
           style="fill-rule:evenodd"
           d="m 134.477,155.868 c 0.754,0 1.507,0 2.258,0 -0.27,1.15 0.386,1.373 0.377,2.259 -0.938,-0.266 -1.547,-0.371 -2.258,0.377 -1.13,-0.645 -0.416,-1.371 -0.377,-2.636 z"
           id="path4171" />
        <path
           inkscape:connector-curvature="0"
           style="fill-rule:evenodd"
           d="m 98.714,156.997 c 0,0.628 0,1.256 0,1.883 -1.256,-0.401 -1.287,0.12 -2.638,-0.375 -0.297,-2.23 1.223,-1.802 2.638,-1.508 z"
           id="path4173" />
        <path
           inkscape:connector-curvature="0"
           style="fill-rule:evenodd"
           d="m 169.489,157.374 c 1.229,-0.098 1.088,1.172 1.882,1.506 -0.708,3.661 -4.492,0.571 -1.882,-1.506 z"
           id="path4175" />
        <path
           inkscape:connector-curvature="0"
           style="fill-rule:evenodd"
           d="m 149.162,158.504 c 0.049,0.927 0.055,1.814 -0.377,2.258 -1.33,-0.232 -2.647,0.026 -2.639,-2.258 1.567,-0.867 1.331,-0.455 3.016,0 z"
           id="path4177" />
        <path
           inkscape:connector-curvature="0"
           style="fill-rule:evenodd"
           d="m 114.526,158.504 c -0.009,0.886 0.646,1.107 0.374,2.258 -0.753,-0.128 -1.176,0.077 -1.127,0.754 -1.026,0.272 -0.76,-0.749 -1.507,-0.754 -0.059,-1.566 0.694,-2.319 2.26,-2.258 z"
           id="path4179" />
        <path
           inkscape:connector-curvature="0"
           style="fill-rule:evenodd"
           d="m 178.147,158.504 c 1.832,-0.578 1.419,1.092 2.635,1.129 0.282,1.158 -1.032,0.723 -0.75,1.883 -1.406,0.401 -1.076,-0.936 -2.262,-0.754 -0.272,-1.152 0.65,-1.108 0.377,-2.258 z"
           id="path4181" />
        <path
           inkscape:connector-curvature="0"
           style="fill-rule:evenodd"
           d="m 163.09,158.879 c 0.885,0.121 0.842,1.166 1.507,1.506 -0.055,1.201 -1.394,1.118 -1.507,2.259 -1.649,-0.629 -1.165,-3.037 0,-3.765 z"
           id="path4183" />
        <path
           inkscape:connector-curvature="0"
           style="fill-rule:evenodd"
           d="m 106.619,159.633 c -0.034,1.472 -0.459,2.551 -2.258,2.258 0.214,-0.662 -0.457,-2.212 0.376,-2.258 0.718,-0.706 0.68,0.222 1.882,0 z"
           id="path4185" />
        <path
           inkscape:connector-curvature="0"
           style="fill-rule:evenodd"
           d="m 121.677,159.633 c 0.754,0 1.507,0 2.261,0 0,0.752 0,1.506 0,2.258 -0.671,-0.703 -0.959,0.306 -2.261,0 0,-0.752 0,-1.506 0,-2.258 z"
           id="path4187" />
        <path
           inkscape:connector-curvature="0"
           style="fill-rule:evenodd"
           d="m 141.631,162.268 c -0.499,0.762 -2.519,1.137 -3.389,0.377 -0.043,-2.75 3.736,-4.224 3.389,-0.377 z"
           id="path4189" />
        <path
           inkscape:connector-curvature="0"
           style="fill-rule:evenodd"
           d="m 130.338,160.762 c 1.501,-0.372 1.134,1.125 2.635,0.754 -0.361,0.769 -0.769,1.489 -1.13,2.258 -0.855,-0.288 -2.941,0.1 -2.635,-2.258 0.551,0.539 1.191,0.288 1.13,-0.754 z"
           id="path4191" />
        <path
           inkscape:connector-curvature="0"
           style="fill-rule:evenodd"
           d="m 155.185,160.762 c 1.33,0.598 1.379,1.643 2.635,1.506 0,0.628 0,1.255 0,1.883 -1.005,0 -2.01,0 -3.011,0 -0.298,-1.551 0.575,-1.932 0.376,-3.389 z"
           id="path4193" />
        <path
           inkscape:connector-curvature="0"
           style="fill-rule:evenodd"
           d="m 184.171,160.762 c 0.503,0 1.005,0 1.508,0 1.081,1.112 0.753,3.275 -1.508,3.012 -0.576,-1.198 -0.132,-1.656 0,-3.012 z"
           id="path4195" />
        <path
           inkscape:connector-curvature="0"
           style="fill-rule:evenodd"
           d="m 148.031,164.527 c 1.062,-0.312 0.975,0.53 1.881,0.375 0,0.628 0,1.255 0,1.883 -0.644,-0.017 -0.975,0.282 -1.127,0.754 -0.708,-0.958 -0.8,-0.172 -1.508,-1.131 -0.278,-1.158 1.033,-0.722 0.754,-1.881 z"
           id="path4197" />
        <path
           inkscape:connector-curvature="0"
           style="fill-rule:evenodd"
           d="m 171.371,165.279 c 0.018,1.146 -0.794,1.465 -1.128,2.26 -0.337,-0.233 -0.674,-0.453 -0.754,0 -2.497,-1.178 0.102,-4.497 1.882,-2.26 z"
           id="path4199" />
        <path
           inkscape:connector-curvature="0"
           style="fill-rule:evenodd"
           d="m 137.112,166.408 c 0.377,0 0.753,0 1.13,0 -0.327,1.786 0.92,1.042 1.131,1.508 -0.009,1.372 -1.517,1.243 -2.261,1.881 -0.475,-0.652 -1.272,-0.986 -1.128,-2.258 0.822,0.067 1.199,-0.31 1.128,-1.131 z"
           id="path4201" />
        <path
           inkscape:connector-curvature="0"
           style="fill-rule:evenodd"
           d="m 161.208,166.408 c 0.506,0.077 0.702,1.565 0.751,0 0.971,0.518 0.086,2.308 0,3.012 -0.5,0 -1.002,0 -1.504,0 -1.039,-1.146 0.039,-2.463 0.753,-3.012 z"
           id="path4203" />
        <path
           inkscape:connector-curvature="0"
           style="fill-rule:evenodd"
           d="m 231.983,168.293 c 0.628,0 1.257,0 1.885,0 0.551,1.151 0.101,1.96 -0.377,3.008 -1.066,0.312 -0.978,-0.526 -1.885,-0.373 -0.299,-1.306 0.561,-1.447 0.377,-2.635 z"
           id="path4205" />
        <path
           inkscape:connector-curvature="0"
           style="fill-rule:evenodd"
           d="m 145.773,168.666 c 1.158,-0.281 0.456,1.3 1.881,0.754 0,0.628 0,1.256 0,1.881 -0.705,0.301 -1.379,0.632 -2.258,0.754 -0.119,-0.882 -0.595,-1.412 -0.377,-2.635 0.641,0.141 0.711,-0.294 0.754,-0.754 z"
           id="path4207" />
        <path
           inkscape:connector-curvature="0"
           style="fill-rule:evenodd"
           d="m 228.219,168.666 c 0.882,1.961 -0.215,4.094 -2.259,3.015 -0.419,-1.21 -0.168,-3.56 2.259,-3.015 z"
           id="path4209" />
        <path
           inkscape:connector-curvature="0"
           style="fill-rule:evenodd"
           d="m 235.749,169.046 c 0.717,0.16 0.68,1.072 1.881,0.751 0,0.754 0,1.504 0,2.258 -0.75,0 -1.504,0 -2.258,0 -0.226,-1.394 -0.619,-2.182 0.377,-3.009 z"
           id="path4211" />
        <path
           inkscape:connector-curvature="0"
           style="fill-rule:evenodd"
           d="m 242.902,170.551 c 0.05,3.085 -2.411,3.808 -3.388,1.504 0.352,-2.175 2.09,-1.814 3.388,-1.504 z"
           id="path4213" />
        <path
           inkscape:connector-curvature="0"
           style="fill-rule:evenodd"
           d="m 139.75,173.186 c 1.002,0 2.007,0 3.012,0 0.303,1.939 -0.962,2.301 -2.638,2.258 0.275,-1.153 -0.649,-1.107 -0.374,-2.258 z"
           id="path4215" />
        <path
           inkscape:connector-curvature="0"
           style="fill-rule:evenodd"
           d="m 135.231,173.939 c 0.401,1.406 -0.935,1.072 -0.754,2.258 -1.284,-0.067 -2.521,-1.431 -1.881,-2.258 0.837,-0.873 1.467,0.125 2.635,0 z"
           id="path4217" />
        <path
           inkscape:connector-curvature="0"
           style="fill-rule:evenodd"
           d="m 227.468,174.316 c 0.162,1.292 -0.15,2.107 -0.377,3.011 -1.323,-0.432 -2.39,-1.124 -2.261,-3.011 0.836,-0.874 1.471,0.128 2.638,0 z"
           id="path4219" />
        <path
           inkscape:connector-curvature="0"
           style="fill-rule:evenodd"
           d="m 234.995,178.458 c -0.771,0.325 -0.75,-1.918 -1.127,-0.754 -0.834,-0.049 -0.163,-1.599 -0.377,-2.261 2.242,-1.838 3.918,1.735 1.504,3.015 z"
           id="path4221" />
        <path
           inkscape:connector-curvature="0"
           style="fill-rule:evenodd"
           d="m 212.783,178.078 c -0.484,0.521 -1.636,0.374 -2.635,0.38 -1.969,-2.904 3.502,-4.531 2.635,-0.38 z"
           id="path4223" />
        <path
           inkscape:connector-curvature="0"
           style="fill-rule:evenodd"
           d="m 215.044,175.443 c 1.661,-0.282 2.47,0.291 3.012,1.131 -0.132,1.124 -1.011,1.498 -1.884,1.884 -0.23,-1.152 -1.689,-1.072 -1.128,-3.015 z"
           id="path4225" />
        <path
           inkscape:connector-curvature="0"
           style="fill-rule:evenodd"
           d="m 220.313,176.574 c 0.754,0 1.505,0 2.259,0 0.217,1.474 -0.325,2.185 -0.754,3.012 -0.334,-0.233 -0.671,-0.454 -0.751,0 -1.304,-0.279 -1.28,-1.882 -0.754,-3.012 z"
           id="path4227" />
        <path
           inkscape:connector-curvature="0"
           style="fill-rule:evenodd"
           d="m 224.079,179.209 c 0.983,0.144 1.051,1.207 2.635,0.753 0.272,1.152 -0.649,1.106 -0.377,2.259 -1.412,-0.738 -0.821,0.355 -1.881,0.753 -2.282,-0.012 -1.544,-3.131 -0.377,-3.765 z"
           id="path4229" />
        <path
           inkscape:connector-curvature="0"
           style="fill-rule:evenodd"
           d="m 227.842,179.209 c 0.879,0 1.758,0 2.638,0 -0.141,0.64 0.291,0.711 0.75,0.753 0.282,1.158 -1.032,0.724 -0.75,1.882 -1.848,-0.034 -3.723,-0.76 -2.638,-2.635 z"
           id="path4231" />
        <path
           inkscape:connector-curvature="0"
           style="fill-rule:evenodd"
           d="m 201.867,179.586 c 1.002,0 2.007,0 3.012,0 0,0.753 0,1.507 0,2.258 -1.188,0.591 -1.654,-0.205 -3.012,-0.377 0,-0.625 0,-1.253 0,-1.881 z"
           id="path4233" />
        <path
           inkscape:connector-curvature="0"
           style="fill-rule:evenodd"
           d="m 208.268,179.962 c 0.661,0.341 1.164,0.843 1.504,1.505 0.282,1.158 -1.032,0.723 -0.754,1.884 -1.124,-0.003 -1.581,-0.677 -1.881,-1.507 -0.095,-1.097 0.708,-1.296 1.131,-1.882 z"
           id="path4235" />
        <path
           inkscape:connector-curvature="0"
           style="fill-rule:evenodd"
           d="m 199.232,180.713 c 0.27,1.152 -0.386,1.373 -0.377,2.261 -0.935,0.49 -1.829,-0.839 -1.884,0 -0.54,-0.465 -0.714,-1.293 -0.751,-2.261 1.499,-0.273 1.514,-0.273 3.012,0 z"
           id="path4237" />
        <path
           inkscape:connector-curvature="0"
           style="fill-rule:evenodd"
           d="m 216.926,180.713 c 0.181,1.352 0.612,2.176 0,3.389 -1.158,-0.264 -0.724,-0.264 -1.882,0 -1.063,-1.37 -0.793,-3.763 1.882,-3.389 z"
           id="path4239" />
        <path
           inkscape:connector-curvature="0"
           style="fill-rule:evenodd"
           d="m 77.253,183.351 c -0.365,0.01 -0.291,0.46 -0.374,0.751 -1.575,-0.27 -1.492,0.138 -2.261,-0.751 -0.162,-2.565 2.981,-2.892 2.635,0 z"
           id="path4241" />
        <path
           inkscape:connector-curvature="0"
           style="fill-rule:evenodd"
           d="m 73.49,182.221 c -0.156,0.906 0.687,0.817 0.377,1.881 -1.688,2.475 -4.917,-2.121 -0.377,-1.881 z"
           id="path4243" />
        <path
           inkscape:connector-curvature="0"
           style="fill-rule:evenodd"
           d="m 218.807,182.221 c 2.236,0.146 1.865,1.933 1.131,3.388 -1.309,-0.291 -1.75,0.05 -2.636,-1.127 -0.297,-1.554 1.802,-0.711 1.505,-2.261 z"
           id="path4245" />
        <path
           inkscape:connector-curvature="0"
           style="fill-rule:evenodd"
           d="m 81.018,182.974 c 0.199,1.704 -0.555,2.458 -2.258,2.259 -0.218,-0.788 -0.935,-1.076 -0.754,-2.259 1.536,-0.313 1.296,-0.058 3.012,0 z"
           id="path4247" />
        <path
           inkscape:connector-curvature="0"
           style="fill-rule:evenodd"
           d="m 61.817,183.728 c 0.84,-1.054 2.847,-0.11 3.012,0.754 -0.285,0.968 -1.201,1.305 -2.635,1.127 -0.56,-0.877 0.129,-1.624 -0.377,-1.881 z"
           id="path4249" />
        <path
           inkscape:connector-curvature="0"
           style="fill-rule:evenodd"
           d="m 186.432,183.728 c 2.246,-0.024 2.476,2.028 1.505,3.389 -1.63,-0.166 -2.204,-1.968 -1.505,-3.389 z"
           id="path4251" />
        <path
           inkscape:connector-curvature="0"
           style="fill-rule:evenodd"
           d="m 193.96,185.232 c 0.227,1.356 -1.149,1.111 -1.128,2.258 -2.246,0.364 -2.764,-1.722 -2.261,-3.009 2.175,-0.223 2.344,-0.156 3.389,0.751 z"
           id="path4253" />
        <path
           inkscape:connector-curvature="0"
           style="fill-rule:evenodd"
           d="m 196.221,184.102 c 0.555,0.196 0.946,0.558 1.504,0.754 0.454,1.584 -0.606,1.651 -0.753,2.635 -1.885,-0.512 -2.133,-2.228 -0.751,-3.389 z"
           id="path4255" />
        <path
           inkscape:connector-curvature="0"
           style="fill-rule:evenodd"
           d="m 201.113,184.102 c 1.376,0.251 3.189,0.346 3.389,2.638 -0.824,1.002 -2.028,0.193 -2.635,0.751 -1.118,-0.809 -1.213,-1.808 -0.754,-3.389 z"
           id="path4257" />
        <path
           inkscape:connector-curvature="0"
           style="fill-rule:evenodd"
           d="m 49.394,184.481 c 1.707,-0.202 2.46,0.552 2.261,2.258 -0.858,-0.107 -1.416,0.089 -1.507,0.751 -0.87,-0.383 -0.778,-1.728 -0.754,-3.009 z"
           id="path4259" />
        <path
           inkscape:connector-curvature="0"
           style="fill-rule:evenodd"
           d="m 82.902,184.481 c 1.188,-0.062 1.256,0.999 2.635,0.751 0.353,1.859 -0.459,2.552 -1.13,3.388 1.063,0.273 1.063,2.739 0,3.012 0.472,1.538 1.186,2.941 -0.377,3.766 -1.958,0.361 -2.822,-3.483 -0.75,-3.766 -0.993,-0.178 -1.333,-3.352 0.374,-3.012 -0.314,-1.479 -1.398,-2.772 -0.752,-4.139 z"
           id="path4261" />
        <path
           inkscape:connector-curvature="0"
           style="fill-rule:evenodd"
           d="m 75.372,184.855 c 0.968,0.288 1.596,0.913 1.881,1.884 -1.091,1.443 -0.628,2.932 0.753,3.766 -0.337,0.665 -0.907,1.097 -1.127,1.881 -0.75,-0.006 -0.481,-1.029 -1.507,-0.754 -0.04,-1.293 -0.193,-2.702 0.753,-3.012 -0.012,-1.243 -1.59,-0.922 -1.884,-1.881 0.221,-0.784 0.794,-1.216 1.131,-1.884 z"
           id="path4263" />
        <path
           inkscape:connector-curvature="0"
           style="fill-rule:evenodd"
           d="m 208.645,185.232 c 0.521,0.229 0.055,1.449 0.75,1.507 -0.285,0.969 -1.201,1.309 -2.635,1.131 0.129,-0.757 -0.076,-1.18 -0.754,-1.131 0.013,-1.369 1.109,-1.654 2.639,-1.507 z"
           id="path4265" />
        <path
           inkscape:connector-curvature="0"
           style="fill-rule:evenodd"
           d="m 66.336,185.608 c 0.628,0 1.256,0 1.881,0 0.113,0.767 0.754,1.005 1.13,1.508 0.064,0.943 -0.842,0.913 -1.13,1.504 -1.158,0.282 -0.459,-1.296 -1.881,-0.75 0,-0.754 0,-1.508 0,-2.262 z"
           id="path4267" />
        <path
           inkscape:connector-curvature="0"
           style="fill-rule:evenodd"
           d="m 81.018,186.739 c 0.352,1.856 -0.401,2.61 -2.258,2.258 -1.455,-1.574 0.683,-3.713 2.258,-2.258 z"
           id="path4269" />
        <path
           inkscape:connector-curvature="0"
           style="fill-rule:evenodd"
           d="m 62.194,186.739 c 2.001,1.152 1.97,2.616 0.377,4.14 -0.714,-0.916 -1.682,-1.581 -1.504,-3.389 0.772,0.763 0.75,-0.153 1.127,-0.751 z"
           id="path4271" />
        <path
           inkscape:connector-curvature="0"
           style="fill-rule:evenodd"
           d="m 73.49,186.739 c 0.328,1.958 -0.456,2.807 -1.884,3.012 0.404,-1.409 -0.935,-1.072 -0.754,-2.261 0.987,-0.144 1.054,-1.207 2.638,-0.751 z"
           id="path4273" />
        <path
           inkscape:connector-curvature="0"
           style="fill-rule:evenodd"
           d="m 92.691,186.739 c 1.091,0.536 2.423,0.837 2.635,2.258 -0.043,1.683 -2.574,1.942 -3.389,0.754 -0.318,-1.574 0.732,-1.777 0.754,-3.012 z"
           id="path4275" />
        <path
           inkscape:connector-curvature="0"
           style="fill-rule:evenodd"
           d="m 87.795,187.49 c 1.063,-0.31 0.975,0.533 1.881,0.38 0.208,0.545 -0.438,1.942 0.376,1.881 -0.68,1.164 -1.152,0.202 -2.635,0.374 -0.216,-1.22 0.259,-1.75 0.378,-2.635 z"
           id="path4277" />
        <path
           inkscape:connector-curvature="0"
           style="fill-rule:evenodd"
           d="m 53.536,187.87 c 1.223,0.281 1.636,1.372 1.508,3.009 -1.753,0.496 -1.263,-1.25 -3.015,-0.754 -0.018,-1.271 0.879,-1.63 1.507,-2.255 z"
           id="path4279" />
        <path
           inkscape:connector-curvature="0"
           style="fill-rule:evenodd"
           d="m 48.644,188.62 c 0.5,0 1.002,0 1.504,0 0.196,0.558 0.558,0.95 0.753,1.505 -0.318,1.066 -1.048,1.716 -2.258,1.884 -0.566,-0.61 -0.566,-2.779 10e-4,-3.389 z"
           id="path4281" />
        <path
           inkscape:connector-curvature="0"
           style="fill-rule:evenodd"
           d="m 187.937,188.62 c -0.27,1.36 -0.763,2.504 -1.505,3.389 -0.817,-0.689 -1.547,-1.468 -1.507,-3.012 0.548,-0.582 1.927,-0.331 3.012,-0.377 z"
           id="path4283" />
        <path
           inkscape:connector-curvature="0"
           style="fill-rule:evenodd"
           d="m 67.09,188.997 c 1.431,0.791 2.267,2.24 1.127,3.766 -1.633,0.003 -0.867,-0.552 -2.635,-0.754 0.078,-1.431 1.085,-1.927 1.508,-3.012 z"
           id="path4285" />
        <path
           inkscape:connector-curvature="0"
           style="fill-rule:evenodd"
           d="m 99.465,188.997 c 0.652,0.601 0.815,1.694 0.753,3.012 -1.375,0.083 -1.443,0.518 -2.635,0 -0.529,-2.16 1.281,-1.983 1.882,-3.012 z"
           id="path4287" />
        <path
           inkscape:connector-curvature="0"
           style="fill-rule:evenodd"
           d="m 197.348,192.009 c -0.483,0.518 -1.636,0.371 -2.635,0.377 -0.205,-1.501 -0.205,-1.134 0,-2.635 1.808,-0.668 2.938,-0.098 2.635,2.258 z"
           id="path4289" />
        <path
           inkscape:connector-curvature="0"
           style="fill-rule:evenodd"
           d="m 59.56,192.009 c -0.882,0.12 -1.412,0.595 -2.635,0.377 0.322,-1.746 -0.594,-0.396 -0.754,-1.131 0.052,-1.388 3.475,-2.334 3.389,0.754 z"
           id="path4291" />
        <path
           inkscape:connector-curvature="0"
           style="fill-rule:evenodd"
           d="m 190.194,190.125 c 2.062,-0.086 3.027,1.762 2.261,3.389 -0.754,0 -1.507,0 -2.261,0 -0.609,-1.214 -0.177,-2.038 0,-3.389 z"
           id="path4293" />
        <path
           inkscape:connector-curvature="0"
           style="fill-rule:evenodd"
           d="m 71.229,190.879 c 0.753,0 1.507,0 2.261,0 0.27,1.151 -0.386,1.372 -0.376,2.261 -2.044,0.113 -2.363,-0.662 -1.885,-2.261 z"
           id="path4295" />
        <path
           inkscape:connector-curvature="0"
           style="fill-rule:evenodd"
           d="m 79.137,190.879 c 0.435,0.318 1.008,0.496 1.881,0.376 0.435,1.058 0.435,1.958 0,3.012 -1.786,0.331 -3.37,-1.661 -1.881,-3.388 z"
           id="path4297" />
        <path
           inkscape:connector-curvature="0"
           style="fill-rule:evenodd"
           d="m 172.501,191.255 c 0.393,2.706 -2.644,2.473 -3.389,1.131 0.231,-1.486 2.035,-1.814 3.389,-1.131 z"
           id="path4299" />
        <path
           inkscape:connector-curvature="0"
           style="fill-rule:evenodd"
           d="m 200.359,190.879 c 0.322,0.812 1.389,0.873 2.635,0.753 0.188,1.565 -0.443,2.316 -1.504,2.635 -1.684,0.233 -1.878,-2.366 -1.131,-3.388 z"
           id="path4301" />
        <path
           inkscape:connector-curvature="0"
           style="fill-rule:evenodd"
           d="m 63.702,194.267 c -0.502,0.38 -1.403,0.355 -1.507,1.131 -0.913,-0.591 -1.409,-1.603 -1.504,-3.012 1.825,-0.687 2.879,-0.037 3.011,1.881 z"
           id="path4303" />
        <path
           inkscape:connector-curvature="0"
           style="fill-rule:evenodd"
           d="m 86.665,192.009 c 1.222,-0.218 1.752,0.258 2.638,0.377 0,0.628 0,1.256 0,1.881 -0.756,-0.128 -1.179,0.08 -1.13,0.754 -1.161,0.282 -0.459,-1.299 -1.881,-0.754 -0.277,-1.152 0.648,-1.106 0.373,-2.258 z"
           id="path4305" />
        <path
           inkscape:connector-curvature="0"
           style="fill-rule:evenodd"
           d="m 94.572,193.14 c 0.046,0.674 -0.46,0.793 -0.377,1.504 -0.993,-0.095 -1.235,-0.774 -1.131,0.754 -1.229,-0.481 -0.796,-0.542 -1.881,-0.754 0.031,-0.533 0.061,-1.065 -0.377,-1.13 0.963,-1.659 2.32,-1.508 3.766,-0.374 z"
           id="path4307" />
        <path
           inkscape:connector-curvature="0"
           style="fill-rule:evenodd"
           d="m 176.644,192.009 c 0.315,0.815 0.974,1.284 0.754,2.635 -0.947,1.217 -2.074,-0.089 -2.639,0.377 -0.766,-0.361 -0.812,-1.446 -0.75,-2.635 0.882,-0.119 1.412,-0.595 2.635,-0.377 z"
           id="path4309" />
        <path
           inkscape:connector-curvature="0"
           style="fill-rule:evenodd"
           d="m 179.278,192.386 c 0.754,0 1.504,0 2.258,0 0.432,1.054 0.435,1.958 0,3.012 -2.061,0.18 -3.036,-1.447 -2.258,-3.012 z"
           id="path4311" />
        <path
           inkscape:connector-curvature="0"
           style="fill-rule:evenodd"
           d="m 185.679,193.14 c 0.582,0.545 0.33,1.927 0.376,3.012 -1.424,-0.546 -0.723,1.032 -1.884,0.75 0.181,-1.183 -0.469,-1.537 -1.127,-1.881 0.575,-0.928 0.885,-2.126 2.635,-1.881 z"
           id="path4313" />
        <path
           inkscape:connector-curvature="0"
           style="fill-rule:evenodd"
           d="m 74.241,193.514 c 0.628,0 1.256,0 1.884,0 0.925,1.596 -0.135,2.671 -0.753,3.768 -0.717,-0.162 -0.68,-1.078 -1.881,-0.753 0.054,-1.199 0.851,-1.659 0.75,-3.015 z"
           id="path4315" />
        <path
           inkscape:connector-curvature="0"
           style="fill-rule:evenodd"
           d="m 97.207,193.514 c 0.481,0.523 1.777,0.232 2.258,0.753 0,0.629 0,1.257 0,1.885 -0.717,0.159 -0.68,1.075 -1.881,0.75 -0.395,1.403 1.269,0.742 1.504,1.508 0.101,1.229 -1.17,1.088 -1.504,1.881 -1.333,0.202 -1.651,-0.606 -2.258,-1.127 0.107,-1.149 1.431,-1.079 1.881,-1.882 -0.527,-1.376 -1.103,-2.58 0,-3.768 z"
           id="path4317" />
        <path
           inkscape:connector-curvature="0"
           style="fill-rule:evenodd"
           d="m 103.607,193.514 c 0.469,0.913 1.452,1.311 1.13,3.015 -1.039,0.45 -1.575,0.814 -2.635,0.373 0,-0.876 0,-1.755 0,-2.635 0.858,0.104 1.413,-0.089 1.505,-0.753 z"
           id="path4319" />
        <path
           inkscape:connector-curvature="0"
           style="fill-rule:evenodd"
           d="m 157.443,195.021 c 0.3,2.556 -1.688,2.886 -3.012,1.881 -0.505,-2.555 1.407,-2.344 3.012,-1.881 z"
           id="path4321" />
        <path
           inkscape:connector-curvature="0"
           style="fill-rule:evenodd"
           d="m 164.971,194.644 c 1.802,-0.168 3.22,0.046 3.389,1.508 0.144,1.146 -1.367,0.64 -1.505,1.504 -1.394,-0.236 -2.099,-1.165 -1.884,-3.012 z"
           id="path4323" />
        <path
           inkscape:connector-curvature="0"
           style="fill-rule:evenodd"
           d="m 169.112,194.644 c 1.085,0.046 2.467,-0.205 3.012,0.377 0.938,4.623 -4.85,2.833 -3.012,-0.377 z"
           id="path4325" />
        <path
           inkscape:connector-curvature="0"
           style="fill-rule:evenodd"
           d="m 82.902,195.774 c 0.505,0.999 1.881,1.131 1.881,2.635 -0.566,0.687 -1.357,1.152 -2.635,1.127 -0.676,-1.798 0.019,-2.509 0.754,-3.762 z"
           id="path4327" />
        <path
           inkscape:connector-curvature="0"
           style="fill-rule:evenodd"
           d="m 106.619,196.151 c 0.796,0.499 1.112,-0.188 2.258,0.377 -0.628,2.843 -0.839,3.918 -1.881,6.023 -0.644,0.079 -0.975,-0.644 -1.131,0 -0.539,-0.466 -0.71,-1.297 -0.75,-2.262 0.965,-0.027 0.536,-1.752 1.504,-0.754 -0.098,-1.726 -0.402,-1.815 0,-3.384 z"
           id="path4329" />
        <path
           inkscape:connector-curvature="0"
           style="fill-rule:evenodd"
           d="m 88.549,197.281 c 0.012,1.521 -1.115,1.894 -2.635,1.882 0.272,-1.152 -0.649,-1.109 -0.377,-2.262 0.769,-0.722 2.466,-0.251 3.012,0.38 z"
           id="path4331" />
        <path
           inkscape:connector-curvature="0"
           style="fill-rule:evenodd"
           d="m 90.807,196.901 c 0.634,0.622 1.691,0.821 2.258,1.508 0.129,1.508 -1.075,1.685 -2.635,1.508 -0.588,-1.192 0.208,-1.655 0.377,-3.016 z"
           id="path4333" />
        <path
           inkscape:connector-curvature="0"
           style="fill-rule:evenodd"
           d="m 176.644,198.032 c 0.04,1.673 -1.195,2.068 -3.012,1.885 -1.875,-2.607 2.098,-4.186 3.012,-1.885 z"
           id="path4335" />
        <path
           inkscape:connector-curvature="0"
           style="fill-rule:evenodd"
           d="m 178.147,197.655 c 0.628,0 1.257,0 1.885,0 1.335,1.115 1.378,3.125 -0.377,3.766 -0.886,-0.772 -0.625,-0.542 -1.885,-1.131 -0.299,-1.305 0.561,-1.446 0.377,-2.635 z"
           id="path4337" />
        <path
           inkscape:connector-curvature="0"
           style="fill-rule:evenodd"
           d="m 158.947,198.032 c 0.879,0 1.759,0 2.638,0 0.113,1.621 0.024,3.039 -1.507,3.012 -0.071,-0.429 -0.377,-0.208 -0.377,0 -0.87,-0.386 -0.778,-1.732 -0.754,-3.012 z"
           id="path4339" />
        <path
           inkscape:connector-curvature="0"
           style="fill-rule:evenodd"
           d="m 113.019,202.175 c -1.495,-0.39 -2.812,-0.953 -2.635,-3.012 2.123,-2.059 4.353,1.02 2.635,3.012 z"
           id="path4341" />
        <path
           inkscape:connector-curvature="0"
           style="fill-rule:evenodd"
           d="m 164.597,198.786 c 0.876,0 1.756,0 2.635,0 0.695,2.411 -1.234,2.613 -1.884,2.635 -0.558,-0.57 -0.607,-1.651 -0.751,-2.635 z"
           id="path4343" />
        <path
           inkscape:connector-curvature="0"
           style="fill-rule:evenodd"
           d="m 148.785,199.536 c 1.979,0.258 2.858,4.177 -0.377,3.769 -0.659,-1.289 0.165,-2.334 0.377,-3.769 z"
           id="path4345" />
        <path
           inkscape:connector-curvature="0"
           style="fill-rule:evenodd"
           d="m 100.595,199.917 c 0.95,0.68 2.215,1.047 2.635,2.258 -0.052,1.577 -1.725,1.538 -3.388,1.504 -0.61,-1.731 0.085,-2.445 0.753,-3.762 z"
           id="path4347" />
        <path
           inkscape:connector-curvature="0"
           style="fill-rule:evenodd"
           d="m 115.653,199.917 c 0.754,0 1.508,0 2.258,0 0.272,1.148 -0.383,1.372 -0.374,2.258 -1.497,0.116 -2.04,-0.724 -1.884,-2.258 z"
           id="path4349" />
        <path
           inkscape:connector-curvature="0"
           style="fill-rule:evenodd"
           d="m 139.75,199.917 c 1.614,0.726 2.059,1.639 1.504,3.762 -1.293,0.165 -2.11,-0.147 -3.012,-0.374 -0.162,-1.795 1.349,-1.918 1.508,-3.388 z"
           id="path4351" />
        <path
           inkscape:connector-curvature="0"
           style="fill-rule:evenodd"
           d="m 152.924,199.917 c 1.78,-0.15 2.715,0.548 2.635,2.258 -0.741,-0.778 -1.002,0.26 -1.127,1.13 -0.629,0 -1.257,0 -1.885,0 -0.257,-1.517 0.361,-2.151 0.377,-3.388 z"
           id="path4353" />
        <path
           inkscape:connector-curvature="0"
           style="fill-rule:evenodd"
           d="m 170.997,203.679 c -0.368,-0.009 -0.294,-0.46 -0.377,-0.754 -0.368,0.641 -1.042,0.969 -2.261,0.754 -0.12,-0.882 -0.595,-1.412 -0.374,-2.635 2.132,-0.539 3.147,0.086 3.012,2.635 z"
           id="path4355" />
        <path
           inkscape:connector-curvature="0"
           style="fill-rule:evenodd"
           d="m 173.255,201.421 c 0.895,0.232 0.619,1.639 2.258,1.131 0.515,1.642 -1.458,0.799 -1.13,2.258 -1.021,-0.107 -1.774,-0.484 -2.259,-1.131 -0.327,-1.455 0.919,-1.339 1.131,-2.258 z"
           id="path4357" />
        <path
           inkscape:connector-curvature="0"
           style="fill-rule:evenodd"
           d="m 96.83,202.552 c 0.337,2.089 -1.048,2.463 -3.012,2.258 0.312,-0.892 -0.53,-1.734 -0.377,-0.377 -0.815,0.064 -0.168,-1.336 -0.377,-1.881 1.906,0.024 2.154,-0.479 3.766,0 z"
           id="path4359" />
        <path
           inkscape:connector-curvature="0"
           style="fill-rule:evenodd"
           d="m 118.665,202.175 c 1.406,-0.15 2.209,0.3 2.261,1.504 0.462,1.22 -1.219,0.288 -0.753,1.508 -2.405,0.024 -2.314,-1.49 -1.508,-3.012 z"
           id="path4361" />
        <path
           inkscape:connector-curvature="0"
           style="fill-rule:evenodd"
           d="m 130.712,202.552 c 0.548,2.053 -1.195,1.816 -1.504,3.011 -1.265,-0.119 -1.501,-1.259 -1.884,-2.258 0.814,-1.326 1.623,-0.944 3.388,-0.753 z"
           id="path4363" />
        <path
           inkscape:connector-curvature="0"
           style="fill-rule:evenodd"
           d="m 157.819,202.175 c 1.483,0.144 1.152,0.267 2.636,0.75 0.021,1.532 -0.77,2.246 -1.882,2.638 -1.476,0.12 -1.35,-2.607 -0.754,-3.388 z"
           id="path4365" />
        <path
           inkscape:connector-curvature="0"
           style="fill-rule:evenodd"
           d="m 115.277,202.552 c 1.161,-0.282 0.723,1.032 1.884,0.753 0.386,1.894 -0.95,2.062 -1.508,3.009 -1.856,-0.524 -0.695,-2.381 -0.376,-3.762 z"
           id="path4367" />
        <path
           inkscape:connector-curvature="0"
           style="fill-rule:evenodd"
           d="m 123.561,202.925 c 1.158,-0.278 0.723,1.036 1.881,0.754 -0.123,0.883 -0.454,1.557 -0.754,2.261 -0.502,0 -1.002,0 -1.504,0 -0.518,-0.486 -0.374,-1.636 -0.376,-2.635 0.462,0.417 0.772,0.325 0.753,-0.38 z"
           id="path4369" />
        <path
           inkscape:connector-curvature="0"
           style="fill-rule:evenodd"
           d="m 135.607,205.939 c -0.462,-0.423 -0.772,-0.33 -0.753,0.374 -0.885,0.01 -1.109,-0.646 -2.258,-0.374 0,-0.628 0,-1.256 0,-1.884 1.296,-1.268 3.401,-0.557 3.011,1.884 z"
           id="path4371" />
        <path
           inkscape:connector-curvature="0"
           style="fill-rule:evenodd"
           d="m 164.971,204.433 c 0.272,1.151 -0.383,1.372 -0.374,2.261 -1.773,-0.199 -1.894,0.135 -2.638,-0.754 -0.224,-1.943 1.768,-2.081 3.012,-1.507 z"
           id="path4373" />
        <path
           inkscape:connector-curvature="0"
           style="fill-rule:evenodd"
           d="m 104.361,204.433 c 0.628,0 1.253,0 1.881,0 0.726,1.329 -0.123,2.062 -0.753,3.012 -1.279,-0.65 -1.668,-1.355 -1.128,-3.012 z"
           id="path4375" />
        <path
           inkscape:connector-curvature="0"
           style="fill-rule:evenodd"
           d="m 110.007,204.433 c 0.946,0.31 1.749,0.76 2.258,1.507 -0.729,1.992 -1.97,2.764 -3.389,1.505 -0.235,-1.616 0.338,-2.424 1.131,-3.012 z"
           id="path4377" />
        <path
           inkscape:connector-curvature="0"
           style="fill-rule:evenodd"
           d="m 143.889,204.433 c 2.43,0.168 1.826,2.245 0.754,3.389 -1.406,0.404 -1.072,-0.935 -2.258,-0.754 0.153,-1.226 0.784,-1.974 1.504,-2.635 z"
           id="path4379" />
        <path
           inkscape:connector-curvature="0"
           style="fill-rule:evenodd"
           d="m 166.478,204.81 c 1.158,-0.279 0.724,1.032 1.882,0.753 0.383,2.014 -1.161,2.1 -1.505,3.386 -0.671,-0.833 -1.868,-1.14 -1.884,-2.635 0.137,-0.865 1.648,-0.359 1.507,-1.504 z"
           id="path4381" />
        <path
           inkscape:connector-curvature="0"
           style="fill-rule:evenodd"
           d="m 148.408,205.939 c 1.474,-0.122 1.348,2.604 0.754,3.389 -0.629,0 -1.257,0 -1.885,0 0.272,-1.151 -0.649,-1.109 -0.377,-2.261 0.721,-0.159 1.621,-0.134 1.508,-1.128 z"
           id="path4383" />
        <path
           inkscape:connector-curvature="0"
           style="fill-rule:evenodd"
           d="m 152.547,205.939 c 1.146,0.582 1.137,4.014 -0.373,4.14 -1.03,0.275 -0.761,-0.748 -1.508,-0.751 -0.291,-2.047 1.259,-2.255 1.881,-3.389 z"
           id="path4385" />
        <path
           inkscape:connector-curvature="0"
           style="fill-rule:evenodd"
           d="m 137.865,206.313 c 2.136,-0.126 3.275,3.692 0,4.143 -0.367,-0.387 -0.744,-0.76 -1.13,-1.128 -0.012,-1.396 0.579,-2.184 1.13,-3.015 z"
           id="path4387" />
        <path
           inkscape:connector-curvature="0"
           style="fill-rule:evenodd"
           d="m 117.912,206.693 c 1.507,-0.162 2.476,3.75 0.377,3.763 -1.817,-0.129 -1.082,-3.009 -0.377,-3.763 z"
           id="path4389" />
        <path
           inkscape:connector-curvature="0"
           style="fill-rule:evenodd"
           d="m 123.561,207.067 c 0.604,1.213 0.31,2.497 -0.377,3.389 -0.438,-0.315 -1.011,-0.497 -1.884,-0.377 -0.41,-1.584 -0.205,-3.354 2.261,-3.012 z"
           id="path4391" />
        <path
           inkscape:connector-curvature="0"
           style="fill-rule:evenodd"
           d="m 158.573,208.198 c 0.272,1.151 -0.649,1.105 -0.377,2.258 -0.928,-0.049 -1.813,-0.056 -2.261,0.377 -0.006,0.885 0.649,1.108 0.377,2.258 -0.662,0.778 -1.164,0.331 -1.504,0.754 -0.963,-0.043 -0.748,-1.263 -0.754,-2.259 1.21,0.23 0.515,-1.356 1.504,-0.377 0.083,-1.213 -0.665,-1.593 -0.374,-3.011 1.269,-0.309 1.606,-0.365 3.389,0 z"
           id="path4393" />
        <path
           inkscape:connector-curvature="0"
           style="fill-rule:evenodd"
           d="m 113.396,208.198 c 1.069,-0.064 0.735,1.271 2.258,0.75 -0.521,0.484 -0.229,1.78 -0.753,2.261 -0.75,0 -1.504,0 -2.258,0 0.009,-0.888 -0.65,-1.108 -0.377,-2.261 0.756,0.129 1.179,-0.073 1.13,-0.75 z"
           id="path4395" />
        <path
           inkscape:connector-curvature="0"
           style="fill-rule:evenodd"
           d="m 134.101,208.948 c -0.031,1.352 -0.585,2.176 -0.751,3.389 -0.628,0 -1.256,0 -1.884,0 -1.281,-2.001 0.346,-5.022 2.635,-3.389 z"
           id="path4397" />
        <path
           inkscape:connector-curvature="0"
           style="fill-rule:evenodd"
           d="m 142.008,213.091 c -2.513,-1.382 0.754,-5.42 2.258,-2.635 -0.037,1.593 -1.235,2.028 -2.258,2.635 z"
           id="path4399" />
        <path
           inkscape:connector-curvature="0"
           style="fill-rule:evenodd"
           d="m 145.773,210.456 c 0.453,0.426 0.68,1.075 1.881,0.753 -0.272,1.152 0.386,1.373 0.377,2.259 -1.18,0.202 -1.21,1.553 -3.012,1.13 0.062,-0.438 -0.083,-0.671 -0.377,-0.753 -0.064,-1.57 1.156,-1.858 1.131,-3.389 z"
           id="path4401" />
        <path
           inkscape:connector-curvature="0"
           style="fill-rule:evenodd"
           d="m 120.926,211.209 c 2.022,-0.229 2.503,1.667 1.881,3.012 -1.762,0.592 -1.25,-0.312 -3.012,-0.376 -0.273,-1.152 0.649,-1.109 0.377,-2.259 0.463,0.42 0.773,0.328 0.754,-0.377 z"
           id="path4403" />
        <path
           inkscape:connector-curvature="0"
           style="fill-rule:evenodd"
           d="m 149.912,211.209 c 0.628,0 1.256,0 1.885,0 0.582,1.716 -0.298,1.594 -0.377,3.389 -1.471,-0.128 -1.492,-0.214 -2.258,-1.507 -0.282,-1.158 1.296,-0.46 0.75,-1.882 z"
           id="path4405" />
        <path
           sodipodi:nodetypes="ccccccccccccccccccccccccccscccccccccccccccccccccccccssscccccccccccccccccccccccccccccccccccccccccccccccccccccccccccccccccccccccccccccccccccccccccccccccccccccccccccccccccccccccccccccccccccccccccccccccccccccccccccccccccccccccccccccccccccccccccccccccccccccccccccccccccccccccccccccccccccccccccccccccccccccccc"
           inkscape:connector-curvature="0"
           style="fill-rule:evenodd"
           d="m 249.676,150.224 c 0.138,5.585 3.012,13.794 1.507,21.459 -0.397,2.031 -3.078,5.019 -5.27,3.763 -1.507,2.133 -3.964,3.315 -5.649,5.27 -5.598,1.054 -9.521,5.787 -14.681,6.026 -2.494,2.022 -5.84,3.195 -8.282,5.27 -1.146,0.561 -1.464,-0.125 -2.258,0.377 -1.911,1.979 -6.197,1.581 -7.53,4.143 -1.231,-0.233 -0.815,-0.202 -2.258,0.373 -0.291,0.117 -0.239,0.705 -0.377,0.754 -1.002,0.353 -2.408,0.049 -3.389,0.377 -3.149,1.051 -5.631,2.632 -8.284,3.766 -2.304,0.986 -5.563,1.801 -7.904,3.012 -46.97518,24.48999 -58.64571,20.11857 -85.081,6.773 -4.157,-1.237 -6.565,-2.527 -10.542,-3.388 -1.413,-2.179 -4.654,-3.521 -7.905,-4.894 -2.806,-1.188 -4.595,-2.469 -8.658,-2.638 -2.228,-0.092 -3.821,0.04 -6.4,-0.377 -5.027,-0.803 -10.398,-0.361 -15.058,-1.504 -0.576,-0.141 -3.149,-2.212 -4.896,-1.885 -1.936,-1.825 -3.863,-3.664 -5.646,-5.646 -1.82,-4.457 -4.277,-8.188 -4.142,-14.681 0.031,-1.403 0.487,-2.715 0.377,-4.143 -0.083,-1.081 -0.944,-1.924 -1.127,-3.012 -0.401,-2.341 0.763,-4.994 -0.377,-7.152 2.426,-1.486 1.578,-4.857 3.012,-6.777 0.606,-0.81 2.132,-1.725 3.388,-3.012 1.054,-1.08 1.952,-2.845 2.635,-3.387 0.202,-0.163 0.962,0.19 1.127,0 0.267,-0.305 0.472,-1.797 1.884,-1.13 3.903,-5.388 13.064,-8.232 16.189,-12.047 1.21,0.083 1.593,-0.667 3.012,-0.377 5.769,-5.125 13.171,-5.378 21.082,-9.789 1.694,0.328 2.975,-1.017 4.519,-1.506 0.563,-0.179 1.324,0.201 1.881,0 1.21,-0.434 1.936,-1.327 3.388,-1.882 0.306,-0.117 1.241,0.234 1.881,0 0.646,-0.234 1.023,-0.982 1.507,-1.129 0.57,-0.173 1.32,0.196 1.881,0 0.925,-0.323 2.089,-1.11 3.012,-1.506 1.523,-0.651 1.988,-0.683 4.896,-1.129 0.796,-0.123 0.398,-0.628 0.75,-0.753 0.646,-0.227 2.19,0.041 3.389,-0.375 1.234,-0.43 2.656,-1.183 3.765,-1.883 2.405,-0.115 4.865,-0.447 7.154,-1.129 1.345,-0.401 3.637,-0.562 5.646,-1.13 0.671,-0.19 0.616,-0.667 1.13,-0.752 2.301,-0.389 5.135,0.055 7.527,-0.377 0.641,-0.115 1.275,-0.707 1.885,-0.752 1.756,-0.136 3.468,0.521 5.27,0.375 0.466,-0.037 1.127,-0.642 1.881,-0.752 2.642,-0.391 7.50635,1.12281 9.29235,-0.37519 2.21049,-0.56231 9.28052,1.08235 13.01534,1.77776 7.65291,1.42495 9.85858,2.82717 12.75952,7.92305 0.40668,0.71439 -0.35013,4.33822 0.44232,4.54281 64.39566,16.62551 61.22664,20.70329 64.62947,25.28757 z M 170.62,115.585 c -0.649,-2.332 -4.807,-0.9 -6.023,-1.506 -0.297,-0.148 0.138,-0.694 -0.377,-0.753 -0.024,-0.003 -0.882,0.757 -1.13,0.753 -0.031,0 0.039,-0.74 0,-0.753 -0.153,-0.052 -2.451,0 -2.635,0 -1.968,-0.003 -4.226,0.141 -6.023,0.753 -0.404,-1.679 -3.87,-0.108 -4.896,0 -2.791,0.294 -5.854,0 -8.658,0.377 -0.526,0.071 -0.986,0.63 -1.504,0.752 -1.008,0.237 -2.05,-0.5 -3.012,-0.377 -0.162,0.021 -0.055,0.711 -0.754,0.753 -0.946,0.057 -2.074,0.183 -3.011,-0.376 -4.461,2.131 -11.52,2.173 -15.812,4.517 -7.068,1.722 -10.769,2.787 -17.696,5.646 -6.425,1.42 -12.445,4.263 -18.447,6.777 -1.7,0.714 -3.56,0.469 -5.27,1.13 -0.401,0.155 -1.676,1.464 -1.881,1.504 -0.897,0.181 -0.515,-0.23 -1.13,0.753 -2.264,1.566 -5.282,2.22 -7.531,3.389 -3.063,1.593 -5.698,4.116 -8.658,6.023 -1.439,0.928 -3.058,1.637 -4.516,2.635 -1.973,1.35 -3.447,3.411 -5.649,3.765 -0.362,1.896 -2.408,2.109 -2.635,4.141 -0.874,-0.12 -1.446,0.062 -1.881,0.377 -0.254,2.633 -2.494,3.909 -2.635,6.023 -0.12,1.74 1.186,3.42 1.504,4.142 0.842,1.892 0.232,2.128 1.13,3.013 0.717,0.705 3.925,3.68 5.27,4.14 0.536,0.184 1.375,-0.248 1.884,0 1.299,0.634 3.079,2.381 4.139,3.012 1.424,0.852 2.025,0.3 3.388,0.377 0.806,0.046 1.542,0.726 1.884,0.753 4.096,0.316 7.243,-0.392 10.163,1.131 4.354,-1.63 9.877,-0.539 13.177,-0.754 0.796,1.575 2.592,0.613 4.142,1.128 2.822,0.943 5.689,3.192 8.281,4.142 0.086,-0.294 0.012,-0.741 0.377,-0.753 5.034,4.001 11.832,6.237 18.07,9.034 0.208,1.551 1.535,1.979 3.388,1.885 2.972,2.225 6.174,4.669 10.919,4.893 2.43,0.113 5.34,-0.814 7.151,-1.131 -0.012,0.004 0.077,0.775 0.377,0.754 0.229,-0.015 -0.098,-0.986 0.753,-0.754 1.351,0.371 -0.098,0.515 1.507,0 1.369,-0.435 3.009,-0.287 3.763,-0.373 2.15,-1.241 4.599,-2.182 7.907,-2.262 0.655,-0.895 1.808,-1.188 2.258,-1.504 0.797,-0.555 2.233,-1.314 2.635,-1.508 0.307,-0.144 0.539,0.487 0.754,0.377 0.27,-0.135 -0.059,-0.618 0.377,-0.753 2.059,-0.641 3.934,-0.423 6.776,-0.754 5.099,-3.695 11.101,-3.284 16.189,-6.774 1.89,0.156 3.759,-0.698 5.27,-2.258 0.083,0.291 0.009,0.741 0.377,0.751 2.368,-2.276 5.846,-3.44 9.788,-4.14 0.601,-1.078 1.934,-1.348 3.766,-1.507 0.037,-0.393 0.064,-0.616 0.374,-0.754 2.784,-1.237 6.409,-2.145 9.788,-2.635 0.601,-0.932 1.109,-1.026 1.508,-1.508 0.159,-0.189 0.631,0.473 0.754,0.38 0.346,-0.272 0.346,-0.876 0.75,-1.13 1.115,-0.708 3.095,-0.438 4.143,-1.131 0.3,-0.196 -0.086,-0.591 0.377,-0.754 1.363,-0.475 3.287,-0.496 4.516,-1.127 1.805,-0.924 2.764,-3.237 5.272,-2.637 -0.144,-1.146 1.366,-0.639 1.505,-1.505 5.87,-1.17 12.619,-5.107 18.072,-9.412 0.484,-2.506 1.281,-4.119 0.751,-6.775 -0.946,0.047 -1.201,-1.117 -1.881,-1.506 -0.493,-0.283 -0.861,0.248 -1.508,0 -0.49,-0.19 -0.94,-1.267 -1.504,-1.507 -1.094,-0.461 -2.46,-0.26 -3.389,-0.752 -0.267,-0.141 -0.312,-0.96 -0.754,-1.129 -1.266,-0.484 -2.583,-0.043 -3.766,-0.377 -2.852,-0.808 -5.113,-2.617 -7.527,-3.766 -2.04,0.729 -3.115,-1.021 -4.519,-1.506 -2.972,-1.024 -6.762,-0.953 -8.658,-1.505 -1.082,-0.316 -1.888,-1.269 -3.012,-1.506 -1.158,-0.244 -2.279,0.057 -3.389,-0.375 0.15,-1.285 -1.299,-0.897 -1.881,-1.13 -1.097,-0.438 -3.294,-1.425 -4.143,-1.881 -2.984,-1.607 -10.935,-1.932 -14.308,-2.636 -2.81,-0.588 -4.176,0.484 -4.893,-2.26 0.493,-2.433 3.931,-3.367 2.258,-6.775 -3.294,-0.921 -7.589,-4.011 -10.536,-3.011 z m -16.565,78.309 c -1.106,0.9 -1.339,2.674 -3.012,3.008 -2.13,-0.793 -3.955,0.08 -5.27,1.131 -0.383,1.762 1.507,1.253 1.127,3.012 -0.052,0.701 -0.248,1.259 -0.754,1.508 -2.227,-0.199 -2.34,-1.875 -1.504,-3.389 -1.158,-0.099 -1.694,-0.818 -2.635,-1.131 -2.328,1.945 -5.04,1.774 -7.154,3.389 -0.769,-0.609 -1.538,-1.223 -2.635,-1.504 -0.315,1.338 -3.364,0.532 -4.142,0.373 -0.662,1.544 -2.279,0.678 -3.766,0.754 -0.895,0.98 -1.657,0.972 -2.635,1.131 -0.021,-1.235 -1.069,-1.44 -0.75,-3.012 -2.537,-0.312 -4.127,-2.421 -7.154,-1.131 -0.279,-2.427 -3.195,-4.96 -4.896,-2.635 -0.113,-1.14 -1.164,-1.345 -0.75,-3.012 -1.841,-0.698 -2.923,-0.079 -4.142,0.754 -0.509,-0.87 -1.514,-1.25 -1.13,-3.015 -4.179,-1.594 -7.981,-3.561 -11.67,-5.644 -1.241,0.141 -0.76,2.001 -2.258,1.881 -0.604,-0.903 -1.462,-1.553 -1.131,-3.389 -1.409,-0.3 -1.979,-0.502 -3.388,0.377 -2.114,-4.028 -9.182,-2.929 -15.812,-2.258 0.018,1.146 -0.34,1.915 -1.127,2.258 -0.983,-0.649 -1.682,-1.584 -2.261,-2.638 -1.37,0.013 -0.8,1.961 -2.635,1.508 0.312,-1.063 -0.53,-0.975 -0.377,-1.882 -3.082,-0.447 -2.537,2.733 -3.765,4.143 -0.481,-0.024 -0.521,-0.484 -1.127,-0.38 -0.677,-0.95 0.714,-2.133 -0.754,-2.635 -0.438,0.692 -0.983,1.274 -1.504,1.884 -0.184,1.186 1.155,0.852 0.75,2.258 2.328,-0.609 2.834,-0.135 4.519,1.131 -1.165,0.089 -0.904,1.605 -1.884,1.881 -1.213,-0.413 -1.296,-1.967 -2.635,-2.258 0.174,1.177 -0.803,1.201 -1.881,1.128 -0.748,-1.416 -0.245,-3.046 0.377,-4.14 -0.279,-0.601 -1.844,0.086 -1.507,-1.13 -1.56,0.367 -1.274,1.746 -2.635,1.507 0.009,-0.889 -0.65,-1.108 -0.377,-2.261 -1.691,-0.024 -3.428,0.407 -4.139,2.261 -0.968,-0.036 -0.539,-1.471 -1.507,-1.507 -1.522,0.674 -3.094,4.941 -0.753,6.023 0.07,-1.562 1.066,-2.197 2.261,-2.636 0.502,0.249 0.699,0.807 0.75,1.508 -0.646,1.234 -1.55,2.212 -2.258,3.389 1.125,1.259 4.087,0.68 3.389,3.762 1.403,-0.021 2.38,0.38 3.388,0.754 -0.055,-0.935 -0.07,-1.826 0.754,-1.881 0.061,0.438 0.594,0.407 1.127,0.374 0,0.753 0,1.507 0,2.261 0.502,0 1.005,0 1.507,0 0.852,-0.778 0.567,-2.696 2.635,-2.261 0.046,1.084 -0.205,2.466 0.377,3.015 4.2,-0.772 3.159,-1.226 6.4,1.127 0.827,-1.054 0.193,-3.572 2.635,-3.012 0.227,0.904 0.542,1.719 0.377,3.012 0.938,0.318 2.016,0.493 3.389,0.377 0.125,-1.167 -0.874,-1.798 0,-2.635 0.484,0.518 1.633,0.371 2.635,0.377 -0.31,0.79 -1.55,1.468 -0.754,2.258 1.655,0.062 3.809,0.322 6.023,0.754 0.745,-0.261 -0.092,-2.102 0.754,-2.258 1.964,-0.46 1.461,1.55 1.504,3.008 2.516,0.689 4.507,2.391 7.154,1.885 0.775,0.355 0.319,1.939 1.508,1.884 0.885,-0.119 0.224,-1.786 1.504,-1.507 0.959,0.046 1.461,0.548 1.507,1.507 -0.217,0.784 -0.934,1.072 -0.753,2.258 2.325,0.31 3.753,1.517 6.023,1.882 1.133,-0.248 1.039,-1.722 2.635,-1.505 0.686,4.768 5.092,3.48 7.53,6.397 0.19,-0.938 0.711,-1.544 1.128,-2.258 1.464,0.42 0.956,2.812 1.884,3.766 2.151,-1.306 2.613,1.755 5.27,0.753 0.646,-0.609 0.147,-2.365 1.508,-2.261 1.035,0.87 1.375,2.31 0.376,3.389 1.603,1.452 2.078,0.552 4.139,0 -0.208,1.844 2.365,0.9 3.766,1.13 0.119,-1.51 0.68,-2.582 1.881,-3.011 0.058,1.197 0.855,1.654 0.754,3.011 3.609,-0.505 4.672,-0.131 7.53,-0.376 -1.188,-1.134 -0.76,-3.615 0.754,-4.143 2.481,0.595 -0.046,3.416 0.751,4.519 2.681,0.549 2.236,-2.031 4.142,-2.258 2.305,1.878 5.665,1.977 7.908,0.377 0.882,1.112 3.051,0.604 5.646,0.751 1.237,-1.664 1.884,-1.611 4.516,-1.881 -0.099,-1.229 1.173,-1.088 1.507,-1.882 -0.141,-1.733 -0.661,-3.894 1.882,-3.765 0,0.75 0,1.504 0,2.258 5.165,-0.42 8.314,-3.935 13.931,-4.894 0.343,-0.658 0.129,-1.878 0.754,-2.258 1.418,-0.386 3.958,1.134 5.646,-0.38 -0.132,-1.74 -1.48,-1.148 -0.754,-3.008 0.668,0.701 0.956,-0.307 2.258,0 0.119,0.508 0.536,0.717 0.377,1.504 1.945,0.187 3.002,-0.512 3.766,-1.504 -1.155,-1.354 -0.089,-2.292 0.376,-3.766 0.546,0.205 1.946,-0.441 1.882,0.377 0.272,1.148 -0.383,1.372 -0.377,2.258 1.709,0.983 2.233,-0.867 4.142,-0.754 0.203,-1.455 -0.671,-1.838 -0.377,-3.389 0.559,-0.196 0.95,-0.555 1.508,-0.75 0.083,0.291 0.315,0.435 0.751,0.373 0,0.754 0,1.508 0,2.262 4.503,-0.46 5.897,-1.704 10.165,-3.015 0.184,-1.187 -0.677,-1.33 -0.377,-2.635 1.611,-1.244 2.979,0.361 3.766,1.13 0.205,-1.173 2.185,-0.579 3.012,-1.13 0.38,-1.759 -1.511,-1.25 -1.131,-3.009 0.368,-0.387 0.745,-0.763 1.131,-1.131 2.043,-0.285 1.627,1.888 2.258,3.012 3.33,-1.293 7.034,-5.098 11.296,-5.649 0.046,-0.386 0.056,-0.625 0.377,-0.751 2.564,-1.026 4.693,-1.56 6.4,-2.638 0.949,-0.601 1.78,-1.14 2.258,-1.504 0.784,-0.604 1.716,-0.646 2.635,-1.131 0.304,-1.305 -0.561,-1.446 -0.377,-2.635 6.416,0.705 6.915,-4.081 6.777,-9.035 -1.186,-0.181 -0.852,1.155 -2.258,0.754 -0.84,-1.132 -0.444,-1.314 -0.377,-3.012 0.959,-0.649 1.458,0.573 1.504,-0.753 -0.343,-1.429 -1.511,-0.276 -2.635,-0.377 0.649,3.517 -3.187,4.126 -4.139,2.259 0.003,-1.123 0.977,-1.279 1.127,-2.259 -2.546,-0.087 -2.276,0.419 -4.516,0.753 0.132,1.267 0.854,2.745 -0.377,3.389 -1.921,0.539 -1.608,-1.152 -2.635,-1.506 -2.421,0.229 -6.605,1.178 -9.412,3.01 -0.275,1.152 0.649,1.109 0.374,2.262 0.671,0.701 0.959,-0.307 2.261,0 -0.009,0.885 0.646,1.108 0.377,2.258 -1.161,-0.282 -0.459,1.296 -1.884,0.754 -0.852,-0.325 -1.382,-1.961 -0.754,-2.639 -1.749,1.03 -2.871,-0.224 -4.14,-0.75 -1.672,0.757 -4.688,1.997 -6.776,2.258 -0.821,1.186 -1.21,2.807 -2.635,3.389 -1.104,0.098 -1.158,-0.852 -2.258,-0.754 -3.879,1.706 -6.811,2.292 -10.543,4.143 -0.294,1.464 -0.576,2.938 -1.884,3.388 -0.91,-0.472 -0.861,-1.899 -2.258,-1.881 -4.323,0.57 -5.438,4.348 -10.166,4.516 -0.395,1.4 1.271,0.739 1.508,1.508 0.062,1.188 0.012,2.271 -0.754,2.635 -0.503,0 -1.002,0 -1.504,0 -0.803,-1.434 0.018,-2.476 0.376,-3.766 -1.617,0.142 -2.503,1.012 -4.142,1.131 0.227,0.9 0.542,1.716 0.377,3.009 -1.171,0.496 -1.075,-0.099 -2.635,0 0.055,-0.932 0.067,-1.826 -0.754,-1.881 -1.967,1.498 -3.661,1.054 -6.777,2.261 -0.224,0.778 0.466,2.473 -0.376,2.635 -0.377,-0.003 -0.448,0.303 -0.754,0.374 -0.929,-0.325 -1.112,-1.395 -1.882,-1.882 -0.658,0.344 -1.878,0.129 -2.258,0.754 1.063,0.19 1.438,1.072 1.882,1.881 -0.573,0.932 -0.772,2.24 -1.882,2.635 0.398,-1.402 -1.412,-0.594 -1.13,-1.881 -0.102,-1.36 1.856,-1.795 1.13,-2.635 -1.98,0.018 -3.698,1.228 -7.154,1.508 z"
           id="path4835" />
        <path
           inkscape:connector-curvature="0"
           style="fill-rule:evenodd"
           d="m 126.196,178.458 c -0.76,-3.312 0.983,-5.512 0.377,-7.53 -1.403,-4.669 -10.101,-1.967 -13.177,-1.508 -1.78,0.267 -3.404,-1.121 -4.896,0.377 -1.342,-2.185 -7.779,-0.205 -8.658,-2.635 -10.261,0.261 -13.87,-11.549 -7.528,-17.695 2.807,-1.541 4.062,-2.44 6.023,-4.517 3.664,-0.477 6.832,-1.449 8.658,-3.766 -0.089,-1.039 -1.4,-0.858 -1.881,-1.504 -0.487,-3.497 1.906,-4.118 3.012,-6.024 1.854,-0.489 4.58,-0.938 5.646,-1.506 1.492,-0.795 1.841,-0.714 3.012,-1.129 1.452,-0.515 1.958,-1.596 3.012,-1.882 1.725,-0.469 3.729,-0.077 5.646,-0.377 0.548,-0.086 0.968,-0.631 1.507,-0.752 1.474,-0.33 5.619,0.053 6.4,-0.377 1.443,-0.798 5.846,-0.784 8.658,-1.129 0.463,-0.057 0.135,-0.679 0.377,-0.754 1.183,-0.363 2.503,0.971 2.635,0 1.063,-0.06 0.876,1.132 1.881,1.13 4.981,-1.668 10.904,1.77 13.931,4.518 3.012,0 6.023,0 9.035,0 2.325,2.191 7.084,1.95 11.67,1.883 1.7,1.938 4.022,3.255 4.519,6.4 0.699,1.183 2.265,1.499 2.636,3.012 0.667,0.086 1.884,-0.38 1.504,0.752 0.772,-1.797 3.906,0.43 4.896,-0.752 -0.355,1.299 1.069,0.518 1.505,0.752 1.094,0.588 1.936,2.134 3.389,2.259 0.386,0.493 0.37,1.388 0.753,1.881 2.638,0.996 6.729,7.763 2.635,11.671 -0.686,0.657 -2.298,0.857 -3.388,1.505 -1.814,1.08 -3.913,3.021 -6.4,4.141 -1.314,0.593 -2.868,0.53 -4.14,1.131 -0.512,0.24 -1.854,0.96 -2.635,1.506 -0.754,0.523 -1.737,0.324 -3.389,1.127 -1.237,0.604 -1.822,0.53 -4.519,1.131 -3.208,0.714 -8.827,1.425 -11.67,2.258 -0.447,0.132 -0.104,0.619 -0.377,0.754 -0.211,0.104 -0.44,-0.496 -0.753,-0.377 -3.019,1.186 -5.448,4.06 -8.658,4.896 -0.586,0.15 -1.284,-0.106 -1.885,0 -2.754,0.487 -6.161,1.774 -7.904,1.882 -2.15,0.132 -3.177,-0.533 -5.27,-0.377 -0.861,0.064 -1.584,0.661 -2.261,0.754 -2.653,0.367 -9.896,0.769 -11.293,0.376 -1.195,-0.334 -1.728,-1.462 -2.635,-1.505 z m 70.776,-26.731 c -1.112,-2.511 2.31,-2.439 1.507,-3.389 -0.34,-0.355 -2.096,-2.227 -4.519,-2.635 -2.586,-0.435 -5.784,0.792 -6.777,-1.13 -1.382,-0.127 -0.347,2.162 -2.258,1.506 -0.542,-0.21 -0.919,-0.587 -1.131,-1.129 0.897,-0.233 0.619,-1.641 2.261,-1.129 -0.582,-3.562 -3.25,-5.034 -4.896,-7.529 -4.372,0.338 -10.214,-1.547 -14.305,-2.26 -0.116,1.138 0.417,2.928 -0.753,3.012 -0.546,-0.205 -1.946,0.44 -1.882,-0.377 -0.833,-0.827 0.659,-1.25 0.751,-2.258 -2.602,0.135 -3.876,-0.443 -5.27,0 -1.854,-2.399 -4.568,-4.615 -7.527,-5.271 -1.343,-0.297 -3.705,0.275 -5.65,0 -0.803,-0.113 -1.531,-0.735 -2.258,-0.752 -0.021,-0.001 -0.484,0.722 -0.754,0.752 -0.82,0.093 -2.092,-0.493 -3.012,-0.377 -1.032,0.133 -2.221,0.993 -3.388,1.13 -1.924,0.227 -3.888,-0.311 -5.647,0 -0.414,0.074 -0.717,0.684 -1.127,0.752 -1.985,0.332 -4.004,0.077 -5.649,0.376 -0.521,0.095 -1.25,0.619 -1.881,0.752 -1.045,0.222 -2.399,0.078 -3.389,0.377 -0.463,0.139 -0.411,0.832 -1.13,1.13 0.046,-0.019 -0.365,-0.522 -0.751,-0.377 -0.563,0.21 -1.639,1.258 -2.261,1.506 -0.855,0.343 0.003,-0.484 -0.75,0.375 -0.515,0.583 -2.332,-0.184 -2.261,0.753 -1.21,-0.083 -1.593,0.667 -3.012,0.377 -0.508,0.87 -1.514,1.247 -1.127,3.012 1.949,0.559 4.084,0.936 4.516,3.012 -4.219,1.354 -7.488,5.49 -12.047,5.271 0.26,1.386 -1.066,0.525 -1.507,0.752 -2.185,1.124 -3.621,3.356 -6.023,4.142 -1.4,3.256 -2.564,7.177 -0.374,9.787 0.741,0.884 4.237,1.709 6.023,2.259 0.159,0.049 1.207,1.524 2.258,0.752 0,0.377 0,0.754 0,1.131 10.689,2.67 18.425,-3.007 27.858,2.26 0.055,-0.824 0.95,-0.81 1.881,-0.754 -0.11,0.741 0.508,0.747 0.753,1.127 -0.064,1.569 -1.397,1.866 -2.635,2.262 0.089,1.859 -1.008,4.068 0,5.646 6.4,1.957 13.123,-0.947 19.578,0 0.619,-0.635 0.817,-1.691 1.504,-2.258 0.708,0.422 0.8,1.458 1.508,1.881 0.701,-1.557 4.123,-0.393 4.893,-1.881 0.766,0.86 2.252,-0.739 3.766,-0.377 1.663,-1.6 3.937,-2.589 5.646,-4.143 8.061,-1.194 14.041,-2.221 21.084,-4.518 0.433,-1.043 2.626,-1.813 4.14,-2.635 1.065,-0.578 2.064,-0.299 3.012,-0.753 0.389,-0.186 0.542,-0.97 1.13,-1.129 1.569,-0.426 0.913,-0.519 1.882,-1.129 0.272,-0.171 0.845,0.152 1.13,0 1.416,-0.755 4.798,-3.726 4.893,-4.517 0.15,-1.226 -2.687,-5.745 -3.762,-4.895 0.636,0.626 -1.22,2.363 -2.261,1.51 z"
           id="path4839" />
        <path
           inkscape:connector-curvature="0"
           style="fill-rule:evenodd"
           d="m 128.454,152.479 c 0.487,0.271 -0.141,2.597 -1.131,2.637 -1.669,0.165 -2.046,-0.964 -1.881,-2.637 1.281,-0.492 2.629,0.84 3.012,0 z"
           id="path4841" />
        <path
           inkscape:connector-curvature="0"
           style="fill-rule:evenodd"
           d="m 154.432,170.928 c -0.506,0.245 -0.702,0.803 -0.754,1.504 -1.088,-0.165 -1.716,-0.793 -1.881,-1.881 1.057,0.052 1.084,-0.923 1.127,-1.885 1.015,-0.668 0.729,1.661 1.131,0.38 0.846,0.156 0.009,1.998 0.754,2.255 -0.2,0.583 -0.393,0.025 -0.377,-0.373 z"
           id="path4843" />
        <path
           inkscape:connector-curvature="0"
           style="fill-rule:evenodd"
           d="m 228.972,174.689 c 0.319,-0.046 2.123,-1.406 3.389,-0.373 0.166,1.421 -0.741,1.765 -1.131,2.635 -1.244,-0.261 -1.719,-1.293 -2.258,-2.262 z"
           id="path4845" />
        <path
           inkscape:connector-curvature="0"
           style="fill-rule:evenodd"
           d="m 129.208,206.693 c 0.355,0.496 -0.242,1.646 0.754,1.505 -0.637,0.995 -1.661,1.602 -1.507,3.388 -0.659,0.714 -1.309,-0.658 -1.131,1.131 -1.244,-1.805 -1.207,-3.863 0,-5.649 0.548,-0.206 1.948,0.441 1.884,-0.375 z"
           id="path4847" />
      </g>
    </g>
  </g>
</svg>
